<?xml version="1.0"?>
<svg xmlns="http://www.w3.org/2000/svg" viewBox="0 0 64 64" width="512" height="512"><g id="Outline"><g><path fill="#2e89b7" d="M30,14a1,1,0,0,0-1,1v4a1,1,0,0,0,1,1h4a1,1,0,0,0,1-1V15a1,1,0,0,0-1-1Zm3,4H31V16h2Z"/><path fill="#2e89b7" d="M50,35a1,1,0,0,0,1-1V26a1,1,0,0,0-1-1H42a1,1,0,0,0-1,1v8a1,1,0,0,0,1,1Zm-7-4h2v2H43Zm6,2H47V31h2Zm0-4H47V27h2Zm-6-2h2v2H43Z"/><path fill="#2e89b7" d="M61.966,18.74a1,1,0,0,0-.483-.616l-29-16a1,1,0,0,0-.966,0l-29,16a1,1,0,0,0-.374,1.391l3,5a1,1,0,0,0,1.357.351l.5-.288V30.2A18.9,18.9,0,0,0,3.6,50.611a1,1,0,0,0,.917.6.984.984,0,0,0,.4-.084,1,1,0,0,0,.515-1.317A16.986,16.986,0,0,1,34.671,32.927a1,1,0,1,0,1.609-1.188A18.95,18.95,0,0,0,9,28.285V23.424l23-13.27,11.734,6.771a1,1,0,1,0,1-1.733L32.5,8.134a1,1,0,0,0-1,0L6.352,22.643,4.391,19.375,32,4.143,59.609,19.375l-1.961,3.268L48.2,17.19a1,1,0,0,0-1,1.733l7.8,4.5V35a1,1,0,0,0,2,0V24.578l.5.288a1,1,0,0,0,1.357-.351l3-5A1,1,0,0,0,61.966,18.74Z"/><path fill="#2e89b7" d="M50,46a1,1,0,0,0,0-2H44a1,1,0,0,0,0,2Z"/><path fill="#2e89b7" d="M56,38H39.3a18.964,18.964,0,0,0-.9-2.611,1,1,0,1,0-1.832.8A16.986,16.986,0,0,1,7.329,53.073,1,1,0,1,0,5.72,54.261,19.5,19.5,0,0,0,7,55.813V61a1,1,0,0,0,2,0V57.718A18.771,18.771,0,0,0,21,62,18.859,18.859,0,0,0,39.737,40H56a1,1,0,0,1,1,1V53a1,1,0,0,1-1,1H51V52a4,4,0,0,0-8,0v2H39a1,1,0,0,0,0,2h3.914a6.2,6.2,0,0,1-1.742,3.414l-.879.879A1,1,0,0,0,41,62H53a1,1,0,0,0,.707-1.707l-.879-.879A6.2,6.2,0,0,1,51.086,56H55v5a1,1,0,0,0,2,0V55.816A3,3,0,0,0,59,53V41A3,3,0,0,0,56,38ZM43.312,60A8.182,8.182,0,0,0,45,55V52a2,2,0,0,1,4,0v3a8.187,8.187,0,0,0,1.687,5Z"/><path fill="#2e89b7" d="M17.438,40.591a4.64,4.64,0,1,0-8.415-3.9,12.127,12.127,0,0,0,.472,10.576l.494.917a14.292,14.292,0,0,0,5.829,5.829l.919.5a12.129,12.129,0,0,0,10.575.471,4.64,4.64,0,1,0-3.9-8.415l-.964.481a2.638,2.638,0,0,1-3.048-.494L17.451,44.6a2.638,2.638,0,0,1-.494-3.048Zm.545,7.372a4.635,4.635,0,0,0,5.357.869l.964-.481a2.632,2.632,0,0,1,3.047.494,2.641,2.641,0,0,1-.827,4.294,10.129,10.129,0,0,1-8.838-.394l-.919-.5a12.283,12.283,0,0,1-5.017-5.017l-.494-.917a10.135,10.135,0,0,1-.395-8.839,2.6,2.6,0,0,1,1.928-1.552,2.739,2.739,0,0,1,.515-.05,2.6,2.6,0,0,1,1.851.775,2.634,2.634,0,0,1,.494,3.047l-.481.964a4.635,4.635,0,0,0,.869,5.357Z"/><path fill="#2e89b7" d="M20.961,42.039a1,1,0,0,1,1,1,1,1,0,0,0,2,0,3,3,0,0,0-3-3,1,1,0,0,0,0,2Z"/><path fill="#2e89b7" d="M20.961,34.039a9.01,9.01,0,0,1,9,9,1,1,0,0,0,2,0,11.013,11.013,0,0,0-11-11,1,1,0,0,0,0,2Z"/><path fill="#2e89b7" d="M20.961,38.039a5.006,5.006,0,0,1,5,5,1,1,0,0,0,2,0,7.009,7.009,0,0,0-7-7,1,1,0,0,0,0,2Z"/></g></g></svg>
