<svg id="Capa_1" enable-background="new 0 0 512 512" height="512" viewBox="0 0 512 512" width="512" xmlns="http://www.w3.org/2000/svg"><g><g><g><g><path fill="#fff" d="m44.73 211.43c1.608 3.864 5.552 6.353 9.729 6.157 4.12-.193 7.758-3.009 9.021-6.926 1.276-3.956-.104-8.467-3.424-10.992-3.381-2.572-8.096-2.718-11.636-.379-3.944 2.606-5.473 7.787-3.69 12.14z"/><path fill="#fff" d="m467.195 139.99h-15.195v-107.382c0-17.98-14.628-32.608-32.608-32.608h-386.784c-17.98 0-32.608 14.628-32.608 32.608v301.859c0 17.98 14.628 32.608 32.608 32.608h143.472l-20.628 44.121h-60.49c-5.523 0-10 4.478-10 10s4.477 10 10 10h200.767v35.998c0 24.705 20.1 44.805 44.806 44.805h126.66c24.705.001 44.805-20.099 44.805-44.804v-282.399c0-24.706-20.1-44.806-44.805-44.806zm-171.466 269.46-19.811-42.374h19.811zm20-204.195h176.271v93.029h-46.284v-14.245c0-3.603-1.938-6.927-5.073-8.702s-6.982-1.726-10.072.128l-77.253 46.358c-3.012 1.807-4.854 5.062-4.854 8.574s1.843 6.768 4.854 8.574l77.253 46.359c1.582.95 3.363 1.426 5.146 1.426 1.698 0 3.397-.432 4.927-1.298 3.135-1.775 5.073-5.1 5.073-8.702v-14.245h46.283v75.443h-176.271zm176.271 137.257h-56.284c-5.522 0-10 4.478-10 10v6.582l-47.818-28.696 47.818-28.695v6.582c0 5.522 4.478 10 10 10h56.284zm0-157.716v.459h-176.271v-.459c0-13.678 11.128-24.806 24.806-24.806h126.66c13.678 0 24.805 11.128 24.805 24.806zm-472-152.188c0-6.952 5.656-12.608 12.608-12.608h386.783c6.953 0 12.609 5.656 12.609 12.608v107.382h-23.968v-86.024c0-5.522-4.478-10-10-10h-344.064c-5.523 0-10 4.478-10 10v108.284c0 5.522 4.477 10 10 10s10-4.478 10-10v-98.284h324.064v76.024h-47.497c-24.706 0-44.806 20.1-44.806 44.806v114.298h-231.761v-46.501c0-5.522-4.477-10-10-10s-10 4.478-10 10v46.501h-23.968zm0 301.86v-15.374h275.729v27.982h-263.121c-6.952 0-12.608-5.656-12.608-12.608zm157.531 76.729 20.627-44.121h55.683l20.627 44.121zm289.664 80.803h-126.66c-13.678 0-24.806-11.127-24.806-24.805v-9.24h176.271v9.24c0 13.678-11.127 24.805-24.805 24.805z"/><path fill="#fff" d="m106.488 239.718h56.284v14.245c0 3.603 1.938 6.927 5.073 8.702 1.53.866 3.229 1.298 4.927 1.298 1.782 0 3.563-.477 5.146-1.426l77.253-46.358c3.012-1.807 4.854-5.062 4.854-8.574s-1.843-6.768-4.854-8.574l-77.253-46.359c-3.089-1.855-6.936-1.903-10.072-.128-3.135 1.775-5.073 5.1-5.073 8.702v14.245h-56.284c-5.523 0-10 4.478-10 10v44.228c-.001 5.521 4.476 9.999 9.999 9.999zm10-44.228h56.284c5.523 0 10-4.478 10-10v-6.582l47.819 28.696-47.82 28.696v-6.582c0-5.522-4.477-10-10-10h-56.284v-24.228z"/></g></g></g></g></svg>