<?xml version="1.0"?>
<svg xmlns="http://www.w3.org/2000/svg" viewBox="0 0 64 64" width="512" height="512"><g id="Outline"><g><circle fill="#2e89b7" cx="46" cy="26" r="1"/><circle fill="#2e89b7" cx="38" cy="26" r="1"/><path fill="#2e89b7" d="M60,22.184V20a17.953,17.953,0,0,0-2.654-9.374,1,1,0,1,0-1.7,1.044A15.961,15.961,0,0,1,58,20v2H56V20a13.994,13.994,0,0,0-27.611-3.23,1,1,0,1,0,1.945.46A11.994,11.994,0,0,1,54,20v.026a4.944,4.944,0,0,0-2.046-.93,9.994,9.994,0,0,0-19.908,0A5.013,5.013,0,0,0,28.424,22H26V20A16,16,0,0,1,53.326,8.7a1,1,0,0,0,1.416-1.412A18,18,0,0,0,24,20v2.184A3,3,0,0,0,22,25v2a3,3,0,0,0,3,3h3.424a4.992,4.992,0,0,0,4.019,2.944A10.029,10.029,0,0,0,36,37.981V40a6,6,0,0,0,11.91,1H51a6.006,6.006,0,0,1,6,6v1H52a1,1,0,0,0-1,1v5H45a4,4,0,0,0,0,8H58a1,1,0,0,0,0-2H45a2,2,0,0,1,0-4h7a1,1,0,0,0,1-1V50h4v7a1,1,0,0,0,2,0V47a8.009,8.009,0,0,0-8-8H48V37.981A10.048,10.048,0,0,0,49.129,37H51a5.006,5.006,0,0,0,5-5V30h3a3,3,0,0,0,3-3V25A3,3,0,0,0,60,22.184ZM54,24v4a3.006,3.006,0,0,1-2,2.829V21.171A3.006,3.006,0,0,1,54,24ZM42,12a8.009,8.009,0,0,1,8,8H47a8.6,8.6,0,0,1-6.122-2.537l-.172-.171a1,1,0,0,0-1.412,0l-.173.172A8.589,8.589,0,0,1,34,19.937,8.008,8.008,0,0,1,42,12ZM25,28a1,1,0,0,1-1-1V25a1,1,0,0,1,1-1h3v4Zm9,2V25.071a1,1,0,1,0-2,0V30c0,.28.019.555.042.829A3,3,0,0,1,30,28V24a3,3,0,0,1,2.035-2.827A.986.986,0,0,0,33,22a10.574,10.574,0,0,0,7-2.621A10.576,10.576,0,0,0,47,22h3v8a7.956,7.956,0,0,1-1.765,5H47a1,1,0,0,0-1,1,.989.989,0,0,0,.318.724A7.987,7.987,0,0,1,34,30ZM46,40a4,4,0,0,1-8,0v-.841a9.933,9.933,0,0,0,8,0Zm5-5h-.353a9.971,9.971,0,0,0,.91-2.056A4.943,4.943,0,0,0,54,31.974V32A3,3,0,0,1,51,35Zm9-8a1,1,0,0,1-1,1H56V24h3a1,1,0,0,1,1,1Z"/><path fill="#2e89b7" d="M38.293,32.293a1,1,0,0,0,0,1.414,5.249,5.249,0,0,0,7.414,0,1,1,0,0,0-1.414-1.414,3.247,3.247,0,0,1-4.586,0A1,1,0,0,0,38.293,32.293Z"/><path fill="#2e89b7" d="M34,56H33V49a1,1,0,0,0-1-1H29V45a4.964,4.964,0,0,0-.435-2.021A5.926,5.926,0,0,1,33,41a1,1,0,0,0,0-2,8,8,0,0,0-5.615,2.343A4.968,4.968,0,0,0,24,40H7a5.006,5.006,0,0,0-5,5v6a1,1,0,0,0,2,0V45a3,3,0,0,1,3-3H24a3,3,0,0,1,3,3V60H7a3,3,0,0,1-3-3V55a1,1,0,0,0-2,0v2a5.006,5.006,0,0,0,5,5H38a1,1,0,0,0,1-1A5.006,5.006,0,0,0,34,56Zm-3-6v6H29V50ZM29,60V58h5a3.006,3.006,0,0,1,2.829,2Z"/><path fill="#2e89b7" d="M15,53a1,1,0,0,0,0,2,4,4,0,1,0-4-4,1,1,0,0,0,2,0,2,2,0,1,1,2,2Z"/><path fill="#2e89b7" d="M3,38H7a1,1,0,0,0,1-1V24a1,1,0,0,0-1-1H3a1,1,0,0,0-1,1V37A1,1,0,0,0,3,38ZM4,25H6V36H4Z"/><path fill="#2e89b7" d="M11,28a1,1,0,0,0-1,1v8a1,1,0,0,0,1,1h4a1,1,0,0,0,1-1V29a1,1,0,0,0-1-1Zm3,8H12V30h2Z"/><path fill="#2e89b7" d="M18,33v4a1,1,0,0,0,1,1h4a1,1,0,0,0,1-1V33a1,1,0,0,0-1-1H19A1,1,0,0,0,18,33Zm2,1h2v2H20Z"/><path fill="#2e89b7" d="M4,19a1,1,0,0,0,1-1V16.414l6.293,6.293A1,1,0,0,0,12,23h4.307l2.756,7.351A1,1,0,0,0,20,31a1.038,1.038,0,0,0,.352-.063,1,1,0,0,0,.585-1.288l-3-8A1,1,0,0,0,17,21H12.414l-6-6H8a1,1,0,0,0,0-2H4a1,1,0,0,0-1,1v4A1,1,0,0,0,4,19Z"/><path fill="#2e89b7" d="M13,14h8a1,1,0,0,0,0-2H13a1,1,0,0,0,0,2Z"/><path fill="#2e89b7" d="M21,16H16a1,1,0,0,0,0,2h5a1,1,0,0,0,0-2Z"/></g></g></svg>
