<svg xmlns="http://www.w3.org/2000/svg" width="170" height="16.93" viewBox="0 0 170 16.93">
  <g id="Group_1573" data-name="Group 1573" transform="translate(-98 -27)">
    <g id="logo" transform="translate(36 -43.104)">
      <g id="Group_984" data-name="Group 984" transform="translate(62 70.104)">
        <g id="Group_983" data-name="Group 983">
          <path id="Path_3619" data-name="Path 3619" d="M73.851,70.109H64.234A2.128,2.128,0,0,0,62,72.117V87.032h3.746V73.4h6.871Z" transform="translate(-62 -70.105)" fill="#2f3236"/>
          <path id="Path_3620" data-name="Path 3620" d="M122.914,70.109a2.128,2.128,0,0,0-2.234,2.008V85.024a2.128,2.128,0,0,0,2.234,2.008h10.8a2.128,2.128,0,0,0,2.233-2.008V72.117a2.128,2.128,0,0,0-2.233-2.008ZM132.2,83.738h-7.771V73.4H132.2Z" transform="translate(-92.058 -70.105)" fill="#2f3236"/>
          <path id="Path_3621" data-name="Path 3621" d="M208.463,70.109H202.4c-1.106,0-1.828.677-2.212,2.008l-5.575,14.915h3.873l1.193-3.237,7.295.016v3.219H210.7V72.114A2.128,2.128,0,0,0,208.463,70.109ZM200.9,80.478l2.6-7.052h3.474v7.052Z" transform="translate(-129.929 -70.105)" fill="#2f3236"/>
          <path id="Path_3622" data-name="Path 3622" d="M245.017,70.109h-6.062c-1.106,0-1.828.677-2.212,2.008l-5.575,14.915h3.873l5.011-13.606h3.475V87.032h3.723V72.117A2.128,2.128,0,0,0,245.017,70.109Z" transform="translate(-148.653 -70.105)" fill="#2f3236"/>
          <path id="Path_3623" data-name="Path 3623" d="M94.607,70.109H88.545c-1.106,0-1.828.677-2.212,2.008L80.758,87.032h3.873l5.012-13.606h3.475V87.032h3.724V72.117A2.128,2.128,0,0,0,94.607,70.109Z" transform="translate(-71.608 -70.105)" fill="#2f3236"/>
          <g id="Group_999" data-name="Group 999" transform="translate(100.343 0.004)">
            <path id="Path_3624" data-name="Path 3624" d="M287.576,70.112,283.65,76.9h-2.031V70.112h-3.633V76.9h-2.008l-3.951-6.792h-4.309l4.93,8.461-4.93,8.461h4.309l3.93-6.792h2.031v6.792h3.633V80.243h2.008l3.951,6.792h4.309l-4.93-8.461,4.93-8.461Z" transform="translate(-267.717 -70.112)" fill="#2f3236"/>
            <path id="Path_3625" data-name="Path 3625" d="M330.437,70.112,326.51,76.9H324.48V70.112h-3.633V87.035h3.633V80.243h2.008l3.951,6.792h4.309l-4.93-8.461,4.93-8.461Z" transform="translate(-294.932 -70.112)" fill="#2f3236"/>
            <path id="Path_3626" data-name="Path 3626" d="M368.584,70.112h-4.309L360.754,76.2l-3.52-6.09h-4.309l4.93,8.461-4.93,8.459h4.309l3.519-6.055,3.52,6.055h4.309l-4.93-8.461Z" transform="translate(-311.363 -70.112)" fill="#2f3236"/>
          </g>
          <path id="Path_3627" data-name="Path 3627" d="M175.771,78.862a2.076,2.076,0,0,0-1.938-2.82h-11.17V73.4h8.915l1.231-3.294H161.151a2.127,2.127,0,0,0-2.234,2.008V82.7h0v2.326a2.128,2.128,0,0,0,2.234,2.008h10.057a2.076,2.076,0,0,0,1.939-1.333Zm-13.108,4.873v-4.4h8.915l-1.689,4.4Z" transform="translate(-111.644 -70.104)" fill="#2f3236"/>
        </g>
      </g>
      <g id="Group_998" data-name="Group 998" transform="translate(217.721 70.107)">
        <path id="Path_3665" data-name="Path 3665" d="M395.529,70.11h-9.375L381.249,78.6l4.905,8.438h9.375Z" transform="translate(-381.249 -70.11)" fill="#3199cc"/>
      </g>
    </g>
  </g>
</svg>
