<?xml version="1.0"?>
<svg xmlns="http://www.w3.org/2000/svg" viewBox="0 0 64 64" width="512" height="512"><g id="Outline"><g><path fill="#2e89b7" d="M61,34a1,1,0,0,0-1,1V45a3,3,0,0,1-3,3H56V46a4,4,0,0,0-3.114-3.893A4.95,4.95,0,0,0,54,39V35a5.006,5.006,0,0,0-5-5H45a1,1,0,0,0-1,1v8a4.95,4.95,0,0,0,1.114,3.107A4,4,0,0,0,42,46v2H39V46.816A3,3,0,0,0,41,44V43a3,3,0,0,0-6,0v1a3,3,0,0,0,2,2.816V48H33V27H57a1,1,0,0,0,0-2H54V23a3.96,3.96,0,0,0-.828-2.409A7.011,7.011,0,0,0,56,15,8.984,8.984,0,0,0,40.932,8.373,3,3,0,1,0,38,12a2.962,2.962,0,0,0,.545-.055A8.95,8.95,0,0,0,38,15a7.013,7.013,0,0,0,2.828,5.591A3.96,3.96,0,0,0,40,23v2H33V7a1,1,0,0,0-2,0V25H13V23a2,2,0,0,1,2-2h6a2,2,0,0,1,1.874,1.335,1,1,0,0,0,1.885-.67,4,4,0,0,0-2.877-2.553A4.947,4.947,0,0,0,23,16V12a5,5,0,0,0-10,0v4a4.95,4.95,0,0,0,1.114,3.107A4,4,0,0,0,11,23v2H4V19a1,1,0,0,0-2,0V45a5.006,5.006,0,0,0,5,5H22.557l-2.25,6H16a5.006,5.006,0,0,0-5,5,1,1,0,0,0,1,1H38a1,1,0,0,0,0-2H13.171A3.006,3.006,0,0,1,16,58H48a3.006,3.006,0,0,1,2.829,2H42a1,1,0,0,0,0,2H52a1,1,0,0,0,1-1,5.006,5.006,0,0,0-5-5H43.693l-2.25-6H57a5.006,5.006,0,0,0,5-5V35A1,1,0,0,0,61,34ZM37,43a1,1,0,0,1,2,0v1a1,1,0,0,1-2,0ZM37,9a1,1,0,1,1,1,1A1,1,0,0,1,37,9Zm3,6a7,7,0,0,1,14,0,5.012,5.012,0,0,1-2.486,4.3,3.911,3.911,0,0,0-.628-.2A4.95,4.95,0,0,0,52,16V14a1,1,0,0,0-1-1,3.857,3.857,0,0,1-2.707-1.121l-.586-.586a1,1,0,0,0-1.414,0l-.586.586A3.857,3.857,0,0,1,43,13a1,1,0,0,0-1,1v2a4.95,4.95,0,0,0,1.114,3.107,3.911,3.911,0,0,0-.628.2A5.012,5.012,0,0,1,40,15Zm4,1V14.912a5.887,5.887,0,0,0,3-1.5,5.887,5.887,0,0,0,3,1.5V16a3,3,0,0,1-6,0Zm-2,7a2,2,0,0,1,2-2h6a2,2,0,0,1,2,2v2H42ZM15,16V13h6v3a3,3,0,0,1-6,0Zm3-7a3.006,3.006,0,0,1,2.829,2H15.171A3.006,3.006,0,0,1,18,9ZM46,39V36h6v3a3,3,0,0,1-6,0Zm0-7h3a3.006,3.006,0,0,1,2.829,2H46ZM4,45V27H31V48H24V46a4,4,0,0,0-3.114-3.893A4.95,4.95,0,0,0,22,39V37a1,1,0,0,0-1-1,8.883,8.883,0,0,1-4.941-1.5l-.5-.336a1,1,0,0,0-1.262.125l-2,2A1,1,0,0,0,12,37v2a4.95,4.95,0,0,0,1.114,3.107,3.912,3.912,0,0,0-.56.174A5.023,5.023,0,0,1,10,37.941a7,7,0,0,1,7.338-6.933A7.229,7.229,0,0,1,24,38.29a7.493,7.493,0,0,0,2.209,5.333l1.084,1.084a1,1,0,0,0,1.414-1.414l-1.084-1.084A5.508,5.508,0,0,1,26,38.29a9.139,9.139,0,0,0-8.568-9.28,8.919,8.919,0,0,0-5.725,1.719,2.994,2.994,0,1,0-3.171,4.224A9,9,0,0,0,8,37.925a6.991,6.991,0,0,0,2.861,5.625A3.963,3.963,0,0,0,10,46v2H7A3,3,0,0,1,4,45Zm10-6V37.414l1.129-1.129A10.868,10.868,0,0,0,20,37.955V39a3,3,0,0,1-6,0Zm0,5h6a2,2,0,0,1,2,2v2H12V46A2,2,0,0,1,14,44ZM9,33a1,1,0,1,1,1-1A1,1,0,0,1,9,33ZM41.557,56H22.443l2.25-6H39.307ZM44,48V46a2,2,0,0,1,2-2h6a2,2,0,0,1,2,2v2Z"/><path fill="#2e89b7" d="M57,2H7A5.006,5.006,0,0,0,2,7v8a1,1,0,0,0,2,0V7A3,3,0,0,1,7,4H57a3,3,0,0,1,3,3V31a1,1,0,0,0,2,0V7A5.006,5.006,0,0,0,57,2Z"/><path fill="#2e89b7" d="M35,32a3,3,0,1,0,3-3A3,3,0,0,0,35,32Zm4,0a1,1,0,1,1-1-1A1,1,0,0,1,39,32Z"/><path fill="#2e89b7" d="M12,9a3,3,0,1,0-3,3A3,3,0,0,0,12,9ZM8,9a1,1,0,1,1,1,1A1,1,0,0,1,8,9Z"/></g></g></svg>
