<svg id="Layer_1" enable-background="new 0 0 128 128" height="512" viewBox="0 0 128 128" width="512" xmlns="http://www.w3.org/2000/svg"><g><path fill="#fff" d="m69.6 60.8c0-1-.8-1.8-1.8-1.8s-1.8.8-1.8 1.8c0 11.1-9 20.1-20.1 20.1s-20.1-9-20.1-20.1c0-1-.8-1.8-1.8-1.8s-1.8.8-1.8 1.8c0 11 7.7 20.6 18.4 23v9.5h-2c-6.3 0-11.9 4-14 10-.3.9.3 2.3 1.7 2.3h38.9c1.3 0 2-1.3 1.7-2.3-2.1-6-7.6-10-14-10h-2v-9.5c11-2.5 18.6-12 18.7-23zm-6.9 41.3h-33.4c2.1-3.3 5.7-5.3 9.5-5.3h14.3c3.9 0 7.5 2 9.6 5.3zm-15.1-8.8h-3.3v-9c.5.1 2.7.1 3.3 0z"/><path fill="#fff" d="m46 76.7c8.7 0 15.7-7 15.7-15.7v-22.9c.1-8.7-6.9-15.7-15.6-15.8s-15.7 6.9-15.8 15.6v23.1c0 8.6 7.1 15.6 15.7 15.7zm0-50.7c6 0 11.2 4.4 12 10.4h-3.9c-1 0-1.8.8-1.8 1.8s.8 1.8 1.8 1.8h4.1v7.8h-4.1c-1 0-1.8.8-1.8 1.8s.8 1.8 1.8 1.8h4.1v7.6h-4.1c-1 0-1.8.8-1.8 1.8s.8 1.8 1.8 1.8h3.9c-.9 6.7-6.9 11.4-13.6 10.5-5.5-.7-9.8-5-10.5-10.5h3.9c1 0 1.8-.8 1.8-1.8s-.8-1.8-1.7-1.8h-4.1v-7.8h4.1c1 0 1.8-.8 1.8-1.8s-.8-1.8-1.8-1.8h-4.1v-7.8h4.1c1 0 1.8-.8 1.8-1.8s-.8-1.8-1.8-1.8h-3.9c.8-5.8 6-10.2 12-10.2z"/><path fill="#fff" d="m103.8 22.4h-36c-1 0-1.8.8-1.8 1.8v29.3c0 1 .8 1.8 1.8 1.8h36c1 0 1.7-.8 1.8-1.7v-29.4c0-1-.8-1.7-1.8-1.8zm-1.7 29.3h-32.5v-25.8h32.5z"/><path fill="#fff" d="m79.2 34.3c.2 0 .5 0 .7.1.4.2 1 1.1 1.3 1.6l1.5 2.3h3.4s-2.3-3.7-2.8-4.2c-.1-.1-.2-.2-.2-.2.4-.2 1.8-1 1.8-2.8 0-1.4-.8-3.1-3.8-3.1h-4.9v10.4h2.9v-4.1zm0-3.9h2.1c.3 0 .7.1.7.7 0 .4-.3.7-.8.7h-2z"/><path fill="#fff" d="m95.7 35.6h-5.3v-1.5h4.8v-2.6h-4.8v-1.1h5.1v-2.6h-8v10.4h8.2z"/><path fill="#fff" d="m80.7 50.6c3.2 0 4.2-2.4 4.4-3.4l.1-.5-2.8-.9c-.2 1.2-.6 2.1-1.7 2.1-1 0-1.8-.6-1.8-2.8 0-2.1.8-2.7 1.9-2.7.7 0 1.5.4 1.6 1.7l2.9-.7-.1-.5c-.2-.7-1.1-3.1-4.3-3.1-2.6 0-4.9 1.9-4.9 5.5-.1 3.4 2.2 5.3 4.7 5.3z"/><circle cx="91.6" cy="45.2" r="2.6"/></g></svg>