<?xml version="1.0" encoding="utf-8"?>
<!-- Generator: Adobe Illustrator 24.0.2, SVG Export Plug-In . SVG Version: 6.00 Build 0)  -->
<svg version="1.1" id="Layer_1" xmlns="http://www.w3.org/2000/svg" xmlns:xlink="http://www.w3.org/1999/xlink" x="0px" y="0px"
	 viewBox="0 0 335.4 334.4" style="enable-background:new 0 0 335.4 334.4;" xml:space="preserve">
<style type="text/css">
	.st0{fill:#FFFFFF;}
</style>
<g>
	<path class="st0" d="M191.4,155.2c0-4-3.2-7.2-7.2-7.2s-7.2,3.2-7.2,7.2c0,44.4-36,80.4-80.4,80.4s-80.4-36-80.4-80.4
		c0-4-3.2-7.2-7.2-7.2s-7.2,3.2-7.2,7.2c0,44,30.8,82.4,73.6,92v38h-8c-25.2,0-47.6,16-56,40c-1.2,3.6,1.2,9.2,6.8,9.2h155.6
		c5.2,0,8-5.2,6.8-9.2c-8.4-24-30.4-40-56-40h-8v-38C160.6,237.2,191,199.2,191.4,155.2L191.4,155.2z M163.8,320.4H30.2
		c8.4-13.2,22.8-21.2,38-21.2h57.2C141,299.2,155.4,307.2,163.8,320.4z M103.4,285.2H90.2v-36c2,0.4,10.8,0.4,13.2,0V285.2z"/>
	<path class="st0" d="M97,218.8c34.8,0,62.8-28,62.8-62.8V64.4c0.4-34.8-27.6-62.8-62.4-63.2S34.6,28.8,34.2,63.6V156
		C34.2,190.4,62.6,218.4,97,218.8z M97,16c24,0,44.8,17.6,48,41.6h-15.6c-4,0-7.2,3.2-7.2,7.2s3.2,7.2,7.2,7.2h16.4v31.2h-16.4
		c-4,0-7.2,3.2-7.2,7.2s3.2,7.2,7.2,7.2h16.4V148h-16.4c-4,0-7.2,3.2-7.2,7.2s3.2,7.2,7.2,7.2H145c-3.6,26.8-27.6,45.6-54.4,42
		c-22-2.8-39.2-20-42-42h15.6c4,0,7.2-3.2,7.2-7.2s-3.2-7.2-6.8-7.2H48.2v-31.2h16.4c4,0,7.2-3.2,7.2-7.2s-3.2-7.2-7.2-7.2H48.2
		V71.2h16.4c4,0,7.2-3.2,7.2-7.2s-3.2-7.2-7.2-7.2H49C52.2,33.6,73,16,97,16z"/>
	<path class="st0" d="M328.2,1.6h-144c-4,0-7.2,3.2-7.2,7.2V126c0,4,3.2,7.2,7.2,7.2h144c4,0,6.8-3.2,7.2-6.8V8.8
		C335.4,4.8,332.2,2,328.2,1.6z M321.4,118.8h-130V15.6h130V118.8z"/>
	<path class="st0" d="M229.8,49.2c0.8,0,2,0,2.8,0.4c1.6,0.8,4,4.4,5.2,6.4l6,9.2h13.6c0,0-9.2-14.8-11.2-16.8
		c-0.4-0.4-0.8-0.8-0.8-0.8c1.6-0.8,7.2-4,7.2-11.2c0-5.6-3.2-12.4-15.2-12.4h-19.6v41.6h11.6V49.2L229.8,49.2z M229.8,33.6h8.4
		c1.2,0,2.8,0.4,2.8,2.8c0,1.6-1.2,2.8-3.2,2.8h-8L229.8,33.6z"/>
	<path class="st0" d="M295.8,54.4h-21.2v-6h19.2V38h-19.2v-4.4H295V23.2h-32v41.6h32.8L295.8,54.4z"/>
	<path class="st0" d="M235.8,114.4c12.8,0,16.8-9.6,17.6-13.6l0.4-2l-11.2-3.6c-0.8,4.8-2.4,8.4-6.8,8.4c-4,0-7.2-2.4-7.2-11.2
		c0-8.4,3.2-10.8,7.6-10.8c2.8,0,6,1.6,6.4,6.8l11.6-2.8l-0.4-2c-0.8-2.8-4.4-12.4-17.2-12.4c-10.4,0-19.6,7.6-19.6,22
		C216.6,106.8,225.8,114.4,235.8,114.4L235.8,114.4z"/>
	<circle fill="#fff" cx="279.4" cy="92.8" r="10.4"/>
</g>
</svg>
