<svg id="Capa_1" enable-background="new 0 0 512.006 512.006" height="512" viewBox="0 0 512.006 512.006" width="512" xmlns="http://www.w3.org/2000/svg"><g><g><g><path fill="#3e9ecf" d="m405.215 354.684-73.525-50.617c-16.399-11.291-38.68-8.544-51.855 6.382l-33.598 37.282c-6.632 1.96-37.869-3.079-76.887-42.204-39.049-39.157-44.101-70.421-42.15-77.051l37.222-33.643c14.898-13.185 17.642-35.483 6.376-51.896l-50.542-73.634c-6.293-9.168-16.218-15.276-27.229-16.758-11.004-1.481-22.183 1.783-30.667 8.956-13.978 11.815-36.267 33.978-47.233 45.211-8.323 8.525-13.482 19.746-14.526 31.596-1.664 18.864-.66 49.567 13.567 88.708 17.102 47.053 48.813 93.984 94.251 139.489 45.439 45.506 92.302 77.264 139.288 94.393 30.567 11.143 55.979 14.186 74.616 14.186 5.196 0 9.868-.237 13.976-.601 11.84-1.048 23.049-6.217 31.563-14.554 11.217-10.984 33.349-33.309 45.145-47.304 7.161-8.496 10.417-19.687 8.935-30.703-1.483-11.013-7.58-20.941-16.727-27.238zm-7.501 45.053c-11.332 13.445-33.635 35.905-43.845 45.903-5.22 5.111-12.086 8.28-19.333 8.921-30.368 2.689-111.812-1.889-211.964-102.188-100.16-100.307-104.734-181.889-102.051-212.31.64-7.266 3.806-14.148 8.914-19.38 9.981-10.224 32.406-32.558 45.834-43.908 3.551-3.002 7.889-4.588 12.435-4.588.878 0 1.765.06 2.655.179 5.5.74 10.261 3.671 13.407 8.255l50.542 73.634c5.564 8.105 4.203 19.12-3.165 25.621-.03.026-.06.053-.09.08l-37.56 33.949c-2.743 2.284-5.936 6.733-6.486 15.202-1.247 19.165 10.756 53.015 48.18 90.543 35.674 35.772 68.103 48.364 87.665 48.362.933 0 1.84-.029 2.714-.085 8.51-.548 12.973-3.756 15.261-6.513l33.898-37.615c.026-.029.053-.059.08-.089 6.483-7.369 17.464-8.73 25.542-3.169l73.525 50.617c4.576 3.15 7.504 7.92 8.246 13.433.744 5.514-.821 10.893-4.404 15.146z"/><path fill="#3e9ecf" d="m298.453 135.521h104.875v17.831c0 3.603 1.938 6.927 5.073 8.702 1.53.866 3.229 1.298 4.927 1.298 1.782 0 3.563-.476 5.146-1.425l88.679-53.215c3.012-1.808 4.855-5.063 4.855-8.575s-1.843-6.767-4.855-8.575l-88.679-53.215c-3.09-1.854-6.938-1.902-10.072-.127-3.135 1.775-5.073 5.099-5.073 8.702v17.831h-104.876c-5.523 0-10 4.477-10 10v50.768c0 5.523 4.477 10 10 10zm10-50.768h104.875c5.523 0 10-4.477 10-10v-10.168l59.244 35.552-59.244 35.552v-10.167c0-5.523-4.477-10-10-10h-104.875z"/><path fill="#3e9ecf" d="m502.006 188.637h-213.938v-17.831c0-3.603-1.938-6.927-5.073-8.702s-6.982-1.727-10.072.127l-88.679 53.215c-3.012 1.808-4.854 5.063-4.854 8.575s1.843 6.767 4.854 8.575l88.679 53.215c1.582.949 3.363 1.425 5.146 1.425 1.698 0 3.397-.432 4.927-1.298 3.135-1.775 5.073-5.099 5.073-8.702v-17.8h59.871c5.523 0 10-4.477 10-10s-4.477-10-10-10h-69.871c-5.523 0-10 4.477-10 10v10.137l-59.244-35.552 59.244-35.552v10.167c0 5.523 4.477 10 10 10h213.938v30.799h-53.655c-5.523 0-10 4.477-10 10s4.477 10 10 10h63.655c5.523 0 10-4.477 10-10v-50.799c-.001-5.522-4.478-9.999-10.001-9.999z"/><path fill="#3e9ecf" d="m389.506 258.67c3.888 1.621 8.542.551 11.321-2.622 2.639-3.013 3.248-7.433 1.47-11.031-1.922-3.888-6.28-6.156-10.568-5.452-4.143.68-7.468 3.953-8.232 8.077-.847 4.57 1.706 9.265 6.009 11.028z"/></g></g></g></svg>