<svg id="Capa_1" enable-background="new 0 0 512 512" height="512" viewBox="0 0 512 512" width="512" xmlns="http://www.w3.org/2000/svg"><g><g><g><path fill="#3399cc" d="m479.392 10.401h-446.784c-17.98 0-32.608 14.628-32.608 32.609v361.859c0 17.98 14.628 32.608 32.608 32.608h168.473l-20.627 44.121h-75.492c-5.522 0-10 4.477-10 10s4.478 10 10 10h302.076c5.522 0 10-4.477 10-10s-4.478-10-10-10h-75.492l-20.627-44.121h168.473c17.98 0 32.608-14.628 32.608-32.608v-361.859c0-17.981-14.628-32.609-32.608-32.609zm-459.392 32.609c0-6.952 5.656-12.608 12.608-12.608h446.783c6.952 0 12.608 5.656 12.608 12.608v326.485h-23.968v-76.501c0-5.523-4.478-10-10-10s-10 4.477-10 10v76.501h-384.063v-295.127h384.064v128.283c0 5.523 4.478 10 10 10s10-4.477 10-10v-138.283c0-5.523-4.478-10-10-10h-404.064c-5.522 0-10 4.477-10 10v305.127h-23.968zm289.469 438.589h-106.938l20.627-44.121h65.684zm182.531-76.73c0 6.952-5.656 12.608-12.608 12.608h-446.784c-6.952 0-12.608-5.656-12.608-12.608v-15.374h472z"/></g><path fill="#3399cc" d="m467.27 244.18c-1.611-3.864-5.585-6.388-9.773-6.16-4.156.226-7.815 3.102-9.027 7.08s.245 8.471 3.606 10.938c3.283 2.409 7.765 2.601 11.231.458 4.103-2.538 5.82-7.858 3.963-12.316z"/><path fill="#3399cc" d="m408.851 246.298h-99.428c18.21-15.547 28.87-38.392 28.87-62.594 0-45.378-36.918-82.296-82.297-82.296-45.373 0-82.287 36.918-82.287 82.296 0 24.191 10.658 47.036 28.865 62.594h-99.424c-5.522 0-10 4.477-10 10v77.926c0 5.523 4.478 10 10 10h305.701c5.522 0 10-4.477 10-10v-77.926c0-5.523-4.478-10-10-10zm-152.852-46.76c-12.023 0-21.806-9.782-21.806-21.805 0-12.024 9.782-21.806 21.806-21.806s21.806 9.782 21.806 21.806c0 12.023-9.783 21.805-21.806 21.805zm-31.199 35.298c0-8.434 6.86-15.294 15.294-15.294h31.804c8.438 0 15.304 6.861 15.304 15.294v2.793c-9.451 5.49-20.141 8.37-31.206 8.37-11.057 0-21.742-2.878-31.195-8.364v-2.799zm-31.092-51.132c0-34.351 27.941-62.296 62.287-62.296 34.351 0 62.297 27.946 62.297 62.296 0 14.17-4.828 27.726-13.395 38.587-3.026-7.93-8.835-14.498-16.227-18.505 5.714-7.151 9.134-16.21 9.134-26.053 0-23.052-18.754-41.806-41.806-41.806s-41.806 18.754-41.806 41.806c0 9.843 3.42 18.902 9.134 26.052-7.39 4.007-13.197 10.574-16.223 18.504-8.567-10.866-13.395-24.421-13.395-38.585zm205.143 140.52h-285.702v-57.926h285.701v57.926z"/><path fill="#3399cc" d="m162.973 307.761h11.233c5.522 0 10-4.477 10-10s-4.478-10-10-10h-11.233c-5.522 0-10 4.477-10 10s4.477 10 10 10z"/><path fill="#3399cc" d="m221.246 307.761h11.234c5.522 0 10-4.477 10-10s-4.478-10-10-10h-11.234c-5.522 0-10 4.477-10 10s4.478 10 10 10z"/><path fill="#3399cc" d="m279.52 307.761h11.234c5.522 0 10-4.477 10-10s-4.478-10-10-10h-11.234c-5.522 0-10 4.477-10 10s4.477 10 10 10z"/><path fill="#3399cc" d="m337.794 307.761h11.233c5.522 0 10-4.477 10-10s-4.478-10-10-10h-11.233c-5.522 0-10 4.477-10 10s4.477 10 10 10z"/></g></g></svg>