<?xml version="1.0"?>
<svg xmlns="http://www.w3.org/2000/svg" viewBox="0 0 64 64" width="512" height="512"><g id="Outline"><g><path fill="#2e89b7" d="M40,31.5a1,1,0,0,0,1-1v-5a1,1,0,0,0-1.352-.937L31.818,27.5H25a4,4,0,0,0,0,8h.28l1.339,4.019A2.9,2.9,0,0,0,29.367,41.5a2.9,2.9,0,0,0,2.749-3.813L31.387,35.5h.431l7.83,2.937A1.026,1.026,0,0,0,40,38.5a1,1,0,0,0,1-1v-3a1,1,0,0,0-2,0v1.557l-6-2.25V29.193l6-2.25V30.5A1,1,0,0,0,40,31.5Zm-9,2H27v-4h4Zm-8-2a2,2,0,0,1,2-2v4A2,2,0,0,1,23,31.5Zm7.219,6.819a.884.884,0,0,1-.123.808.931.931,0,0,1-1.58-.241L27.388,35.5h1.891Z"/><path fill="#2e89b7" d="M48.858,13v2a1,1,0,0,0,1,1h6a1,1,0,0,0,1-1V13a2.994,2.994,0,0,0-1.4-2.529A2.967,2.967,0,0,0,55.858,9a3,3,0,0,0-6,0,2.968,2.968,0,0,0,.4,1.471A2.992,2.992,0,0,0,48.858,13Zm6,1h-4V13a1,1,0,0,1,1-1h2a1,1,0,0,1,1,1Zm-2-6a1,1,0,1,1-1,1A1,1,0,0,1,52.858,8Z"/><path fill="#2e89b7" d="M47.858,55v2a1,1,0,0,0,1,1h6a1,1,0,0,0,1-1V55a2.994,2.994,0,0,0-1.4-2.529,2.967,2.967,0,0,0,.4-1.471,3,3,0,0,0-6,0,2.968,2.968,0,0,0,.4,1.471A2.992,2.992,0,0,0,47.858,55Zm6,1h-4V55a1,1,0,0,1,1-1h2a1,1,0,0,1,1,1Zm-2-6a1,1,0,1,1-1,1A1,1,0,0,1,51.858,50Z"/><path fill="#2e89b7" d="M61.588,49.611l-9-6.539a1,1,0,0,0-1.176,0L46.8,46.425l-4.041-4.15a14.946,14.946,0,0,0,.386-20.146L45.272,20H60.858a1,1,0,0,0,1-1V11a1,1,0,0,0-2,0v7h-14V4h14V7a1,1,0,1,0,2,0V3a1,1,0,0,0-1-1h-16a1,1,0,0,0-1,1V18.586l-2.129,2.129a14.922,14.922,0,0,0-2.652-1.863,1,1,0,0,0-.965,1.752A13,13,0,0,1,31.858,45a13.151,13.151,0,0,1-2.533-.251,1,1,0,1,0-.388,1.962A15.16,15.16,0,0,0,31.858,47,14.92,14.92,0,0,0,41.3,43.643l3.866,3.969-2.751,2a1,1,0,0,0-.363,1.118l3.437,10.58a1,1,0,0,0,.951.691H57.562a1,1,0,0,0,.952-.691L59.6,57.972a1,1,0,0,0-1.9-.618L56.836,60H47.164l-2.988-9.2L52,45.117,59.824,50.8l-.892,2.749a1,1,0,1,0,1.9.617l1.117-3.439A1,1,0,0,0,61.588,49.611Z"/><path fill="#2e89b7" d="M6.858,13v2a1,1,0,0,0,1,1h6a1,1,0,0,0,1-1V13a2.994,2.994,0,0,0-1.4-2.529A2.967,2.967,0,0,0,13.858,9a3,3,0,0,0-6,0,2.968,2.968,0,0,0,.4,1.471A2.992,2.992,0,0,0,6.858,13Zm6,1h-4V13a1,1,0,0,1,1-1h2a1,1,0,0,1,1,1Zm-2-6a1,1,0,1,1-1,1A1,1,0,0,1,10.858,8Z"/><path fill="#2e89b7" d="M19.358,46.277l-.229-.132,2.862-2.863a15.093,15.093,0,0,0,2.905,2,1,1,0,0,0,.929-1.769,12.992,12.992,0,0,1,8.81-24.2,1,1,0,0,0,.426-1.955,15.1,15.1,0,0,0-3.2-.35,14.921,14.921,0,0,0-9.983,3.836L17.83,16.683a8.971,8.971,0,0,0,.835-10.151,1,1,0,1,0-1.734,1,7.03,7.03,0,1,1-2.447-2.507,1,1,0,1,0,1.039-1.708A9,9,0,1,0,16.4,18.079l4.075,4.183a14.945,14.945,0,0,0,.1,19.608l-3.239,3.239-5.978-3.451a1,1,0,0,0-1,0l-8,4.619a1,1,0,0,0-.5.867V53a1,1,0,0,0,2,0V47.721l7-4.042,7,4.042V55.8l-7,4.042-7.5-4.331a1,1,0,0,0-1,1.732l8,4.619a1,1,0,0,0,1,0l8-4.619a1,1,0,0,0,.5-.866V47.144A1,1,0,0,0,19.358,46.277Z"/><path fill="#2e89b7" d="M6.858,54v2a1,1,0,0,0,1,1h6a1,1,0,0,0,1-1V54a2.994,2.994,0,0,0-1.4-2.529,2.967,2.967,0,0,0,.4-1.471,3,3,0,0,0-6,0,2.968,2.968,0,0,0,.4,1.471A2.992,2.992,0,0,0,6.858,54Zm6,1h-4V54a1,1,0,0,1,1-1h2a1,1,0,0,1,1,1Zm-2-6a1,1,0,1,1-1,1A1,1,0,0,1,10.858,49Z"/><path fill="#2e89b7" d="M55.9,41.938a1,1,0,0,0,1.285-.591,26.975,26.975,0,0,0,.671-16.617,1,1,0,1,0-1.925.54,24.981,24.981,0,0,1-.622,15.383A1,1,0,0,0,55.9,41.938Z"/><path fill="#2e89b7" d="M39.551,55.788a25.037,25.037,0,0,1-15.384-.01,1,1,0,1,0-.617,1.9,26.912,26.912,0,0,0,16.616.009,1,1,0,1,0-.615-1.9Z"/><path fill="#2e89b7" d="M7.088,24.037a1,1,0,0,0-1.233.693,26.989,26.989,0,0,0,.674,16.617A1,1,0,1,0,8.4,40.653,24.992,24.992,0,0,1,7.781,25.27,1,1,0,0,0,7.088,24.037Z"/><path fill="#2e89b7" d="M23.858,8.271a1.01,1.01,0,0,0,.309-.048,24.924,24.924,0,0,1,15.383,0,1,1,0,1,0,.617-1.9,26.939,26.939,0,0,0-16.617,0,1,1,0,0,0,.308,1.951Z"/></g></g></svg>
